Coordinates
version=1
nRows=54
nColumns=12
inDegrees=yes

Units are S.I. units (second, meters, Newtons, ...)
Angles are in degrees

endheader
time	SC_y	SC_z	SC_x	AC_y	AC_z	AC_x	GH_y	GH_z	GH_yy	EL_x	PS_y
       0.0              -21.26          37.88          49.07          36.04           3.09         -9.148         -113.9         -6.996         -1.306          41.89          77.56
    0.0297              -21.26          37.88          49.07          36.05           3.09         -9.144         -113.9         -6.991         -1.279          41.89          77.57
   0.05939              -21.27          37.87          49.06          36.05           3.09         -9.139         -113.8         -6.987         -1.251          41.89          77.58
   0.08909              -21.27          37.87          49.06          36.06          3.091         -9.134         -113.8         -6.982         -1.221          41.89          77.59
    0.1188              -21.27          37.87          49.05          36.06          3.091         -9.129         -113.8         -6.976          -1.19          41.88           77.6
    0.1485              -21.27          37.87          49.04          36.07          3.091         -9.124         -113.7         -6.971         -1.156          41.88          77.61
    0.1782              -21.27          37.86          49.03          36.07          3.091         -9.118         -113.6         -6.965          -1.12          41.88          77.62
    0.2079              -21.27          37.86          49.03          36.08          3.091         -9.112         -113.6         -6.958         -1.081          41.88          77.63
    0.2376              -21.28          37.85          49.02          36.08          3.091         -9.106         -113.5         -6.951          -1.04          41.87          77.65
    0.2673              -21.28          37.85          49.01          36.09          3.091         -9.099         -113.4         -6.944        -0.9953          41.87          77.66
     0.297              -21.28          37.84           49.0           36.1          3.092         -9.091         -113.4         -6.936        -0.9476          41.86          77.68
    0.3266              -21.28          37.84          48.99           36.1          3.092         -9.083         -113.3         -6.927        -0.8963          41.86           77.7
    0.3563              -21.28          37.83          48.98          36.11          3.092         -9.074         -113.2         -6.918         -0.841          41.85          77.72
     0.386              -21.29          37.83          48.97          36.12          3.092         -9.065         -113.1         -6.908        -0.7812          41.85          77.74
    0.4157              -21.29          37.82          48.95          36.13          3.093         -9.055         -113.0         -6.897        -0.7166          41.84          77.76
    0.4454              -21.29          37.81          48.94          36.14          3.093         -9.044         -112.9         -6.886        -0.6465          41.84          77.78
    0.4751               -21.3          37.81          48.92          36.15          3.093         -9.032         -112.8         -6.873        -0.5702          41.83          77.81
    0.5048               -21.3           37.8          48.91          36.16          3.094         -9.019         -112.7         -6.859        -0.4872          41.82          77.84
    0.5345              -21.31          37.79          48.89          36.18          3.094         -9.004         -112.5         -6.844        -0.3966          41.82          77.87
    0.5642              -21.31          37.78          48.87          36.19          3.094         -8.989         -112.4         -6.827        -0.2973          41.81           77.9
    0.5939              -21.32          37.77          48.85          36.21          3.095         -8.971         -112.2         -6.809        -0.1883           41.8          77.94
    0.6236              -21.32          37.75          48.82          36.22          3.095         -8.952         -112.0         -6.789       -0.06834          41.79          77.98
    0.6533              -21.33          37.74           48.8          36.24          3.096         -8.931         -111.8         -6.767        0.06416          41.77          78.02
     0.683              -21.33          37.73          48.77          36.26          3.096         -8.908         -111.6         -6.743          0.211          41.76          78.07
    0.7127              -21.34          37.71          48.73          36.29          3.097         -8.883         -111.3         -6.715         0.3742          41.75          78.13
    0.7424              -21.35          37.69           48.7          36.31          3.098         -8.854         -111.0         -6.685         0.5563          41.73          78.19
    0.7721              -21.36          37.67          48.65          36.34          3.099         -8.822         -110.7         -6.651         0.7602          41.71          78.26
    0.8018              -21.37          37.65          48.61          36.38          3.099         -8.785         -110.4         -6.613         0.9897          41.69          78.34
    0.8315              -21.38          37.62          48.56          36.42            3.1         -8.744         -109.9         -6.569          1.249          41.67          78.43
    0.8612               -21.4          37.59           48.5          36.46          3.102         -8.698         -109.5          -6.52          1.543          41.64          78.53
    0.8909              -21.41          37.56          48.43          36.51          3.103         -8.645         -109.0         -6.464          1.879          41.62          78.64
    0.9206              -21.43          37.52          48.35          36.56          3.105         -8.584         -108.4           -6.4          2.265          41.58          78.77
    0.9503              -21.45          37.47          48.26          36.63          3.106         -8.514         -107.7         -6.325           2.71          41.54          78.92
    0.9799              -21.48          37.42          48.16           36.7          3.108         -8.432         -106.9         -6.239          3.228           41.5           79.1
      1.01               -21.5          37.36          48.03          36.79          3.111         -8.336         -105.9         -6.138          3.833          41.44          79.31
     1.039              -21.54          37.29          47.89           36.9          3.114         -8.224         -104.8         -6.019          4.547          41.38          79.55
     1.069              -21.58           37.2          47.72          37.02          3.117          -8.09         -103.5         -5.878          5.395          41.31          79.84
     1.099              -21.63           37.1          47.51          37.17          3.121         -7.929         -101.9         -5.708          6.411          41.22          80.18
     1.128              -21.68          36.97          47.26          37.35          3.126         -7.735         -99.99         -5.503          7.641          41.11           80.6
     1.158              -21.75          36.82          46.96          37.57          3.132         -7.498         -97.65         -5.252          9.143          40.98          81.11
     1.188              -21.84          36.63          46.58          37.84          3.139         -7.205         -94.76         -4.943           11.0          40.82          81.74
     1.218              -21.95           36.4          46.12          38.17          3.149          -6.84         -91.15         -4.557          13.31          40.61          82.53
     1.247              -22.09           36.1          45.53           38.6           3.16          -6.38         -86.61         -4.071          16.22          40.36          83.52
     1.277              -22.26          35.72          44.78          39.14          3.175         -5.796         -80.84         -3.453          19.92          40.03          84.78
     1.307              -22.48          35.24          43.82          39.83          3.194         -5.047         -73.46         -2.662          24.66          39.62          86.39
     1.336              -22.77          34.62          42.59          40.72          3.218         -4.087         -63.98         -1.647          30.74          39.08          88.46
     1.366              -23.13          33.83          41.02          41.85          3.249         -2.861         -51.87        -0.3508          38.51           38.4          91.11
     1.396              -23.59          32.84          39.04          43.28          3.288         -1.318         -36.65          1.279          48.28          37.54          94.43
     1.425              -24.15          31.63          36.64          45.01          3.336         0.5611          -18.1          3.266          60.18           36.5          98.48
     1.455               -24.8          30.23          33.84          47.02          3.391           2.74          3.403          5.568          73.98          35.29          103.2
     1.485               -25.5          28.71          30.82           49.2          3.451          5.098          26.69          8.061          88.92          33.98          108.3
     1.514              -26.21          27.19           27.8          51.38          3.511          7.457          49.97          10.55          103.9          32.67          113.3
     1.544              -26.86          25.79          25.01          53.39          3.566          9.636          71.47          12.86          117.7          31.46          118.0
     1.574              -27.41          24.58           22.6          55.13          3.613          11.52          90.02          14.84          129.6          30.41          122.1
